<svg width="1920" height="1080" viewBox="0 0 1920 1080" fill="none" xmlns="http://www.w3.org/2000/svg">
<path d="M0 0H1920V1080H0V0Z" fill="url(#paint0_linear_2_226)"/>
<path d="M1345.91 753.522C1481.19 654.984 1515.7 619.225 1659.27 619.225C1802.84 619.225 2127.24 712.217 2127.24 812.579C2127.24 912.941 1833.63 907.636 1646.85 907.636C1460.06 907.636 1210.63 852.061 1345.91 753.522Z" fill="#3B5A31"/>
<path d="M622.7 713.981C802.405 493.155 956.277 351.569 1103.27 351.569C1250.26 351.569 1223.08 520.383 1424.57 733.041C1460.28 770.733 1492.21 823.602 1482.1 849.117C1435.17 967.555 952.614 945.699 831.675 945.699C684.683 945.699 442.996 934.808 622.7 713.981Z" fill="url(#paint1_linear_2_226)"/>
<path d="M-112.649 873.116C-112.649 736.466 64.0237 219.747 287.733 219.747C511.442 219.747 844.228 648.06 898.019 773.678C912.602 807.735 926.224 829.765 921.914 838.948C873.794 941.463 542.186 887.739 336.867 887.739C113.158 887.739 -112.649 1009.77 -112.649 873.116Z" fill="url(#paint2_linear_2_226)"/>
<path d="M-104.545 975.918C-59.5331 814.432 388.011 779.87 985.66 779.87C1583.31 779.87 2092.22 822.426 2098.69 1046.69C2105.16 1270.96 2007.34 1095.26 985.66 1102.84C-36.0165 1110.43 -149.556 1137.4 -104.545 975.918Z" fill="#679E60"/>
<path d="M587.647 184.225C587.647 126.235 634.657 79.2253 692.647 79.2253C750.637 79.2253 797.647 126.235 797.647 184.225C797.647 242.215 750.637 289.225 692.647 289.225C634.657 289.225 587.647 242.215 587.647 184.225Z" fill="#FFC81E"/>
<path d="M1065.57 196.593C1065.23 156.726 1076.44 145.737 1105.18 129.265C1138.4 110.229 1186.65 98.2507 1240.36 98.2507C1318.7 98.2507 1308.96 118.288 1350.75 119.99C1424.42 122.99 1484 156.157 1484 187.597C1484 239.012 1449.26 270.594 1349.08 270.196C1281.46 269.928 1301.89 247.096 1264.42 247.096C1261.64 247.096 1184.14 253.84 1147.67 247.096C1090.86 236.588 1065.91 236.461 1065.57 196.593Z" fill="#DAE6ED"/>
<path d="M1440.03 344.453C1440.03 330.072 1332.88 320.833 1339.01 291.826C1352.48 228.097 1488.19 217.153 1578.29 220.205C1663.57 223.093 1609.1 243.108 1666.01 242.311C1726.61 241.462 1808.89 257.642 1821.65 295.09C1833.55 330.012 1865 321.022 1866.16 348.742C1867.92 390.875 1795.99 390.787 1659.17 390.787C1522.35 390.787 1440.03 386.623 1440.03 344.453Z" fill="#E4EDF1"/>
<path d="M208.146 315.293C208.146 302.626 169.389 282.097 174.788 256.547C186.652 200.414 302.468 178.533 381.835 181.221C456.949 183.765 445.381 213.901 495.51 213.199C548.891 212.452 663.159 223.563 674.397 256.547C684.877 287.306 639.789 302.403 640.811 326.818C642.363 363.93 526.322 359.203 405.812 359.203C285.303 359.203 208.146 352.437 208.146 315.293Z" fill="#E4EDF1"/>
<path d="M627.655 766.048H636.619H645.582C645.582 766.048 641.793 786.02 641.793 804.85C641.793 823.68 645.582 841.368 645.582 841.368C645.582 841.368 644.279 844.612 637.225 844.635C630.17 844.659 627.863 841.368 627.863 841.368C627.863 841.368 631.093 822.92 631.093 804.09C631.093 785.26 627.655 766.048 627.655 766.048Z" fill="#4D3625"/>
<path d="M641.472 748.411C641.472 748.411 649.573 768.62 664.111 785.661C678.648 802.702 685.806 815.237 685.806 815.237C685.806 815.237 661.158 820.924 636.619 820.751C612.079 820.578 587.647 814.545 587.647 814.545C587.647 814.545 599.652 796.738 609.654 779.87C619.656 763.003 641.472 748.411 641.472 748.411Z" fill="#457235"/>
<path d="M633.772 721.182C633.772 721.182 649.109 735.864 661.437 750.314C673.765 764.763 678.237 773.635 678.237 773.635C678.237 773.635 657.336 778.457 636.527 778.311C615.718 778.164 595 773.048 595 773.048C595 773.048 604.295 762.578 611.826 750.146C619.358 737.715 633.772 721.182 633.772 721.182Z" fill="#457235"/>
<path d="M634.79 693.601C634.79 693.601 643.254 704.149 654.066 716.822C664.877 729.495 669.437 739.129 669.437 739.129C669.437 739.129 654.788 743.359 636.538 743.23C618.288 743.102 602.573 738.983 602.573 738.983C602.573 738.983 613.034 723.435 617.694 716.822C622.353 710.208 634.79 693.601 634.79 693.601Z" fill="#457235"/>
<path d="M922.876 757.196H931.226H939.575C939.575 757.196 936.046 775.801 936.046 793.341C936.046 810.882 939.575 827.358 939.575 827.358C939.575 827.358 938.362 830.38 931.79 830.402C925.219 830.424 923.07 827.358 923.07 827.358C923.07 827.358 926.079 810.173 926.079 792.633C926.079 775.093 922.876 757.196 922.876 757.196Z" fill="#4D3625"/>
<path d="M922.876 739.523C922.876 739.523 940.923 753.165 954.465 769.039C968.007 784.912 977.045 803.017 977.045 803.017C977.045 803.017 954.085 808.314 931.226 808.153C908.367 807.992 885.608 802.372 885.608 802.372C885.608 802.372 890.389 783.864 899.706 768.152C909.023 752.439 922.876 739.523 922.876 739.523Z" fill="#3B662B"/>
<path d="M924.06 710.423C924.06 710.423 939.363 721.992 950.846 735.452C962.33 748.912 969.993 764.264 969.993 764.264C969.993 764.264 950.524 768.756 931.14 768.619C911.756 768.483 892.458 763.717 892.458 763.717C892.458 763.717 896.512 748.023 904.413 734.699C912.313 721.376 924.06 710.423 924.06 710.423Z" fill="#3B662B"/>
<path d="M934.802 690.119C934.802 690.119 943.563 702.152 947.434 710.343C951.306 718.534 965.226 732.122 965.226 732.122C965.226 732.122 948.151 736.062 931.151 735.942C914.151 735.822 897.225 731.642 897.225 731.642C897.225 731.642 906.292 719.307 913.932 710.343C921.572 701.379 934.802 690.119 934.802 690.119Z" fill="#3B662B"/>
<path d="M809.973 770.506H818.713H827.452C827.452 770.506 823.758 789.98 823.758 808.34C823.758 826.7 827.452 843.946 827.452 843.946C827.452 843.946 826.182 847.109 819.304 847.132C812.425 847.155 810.176 843.946 810.176 843.946C810.176 843.946 813.325 825.959 813.325 807.599C813.325 789.239 809.973 770.506 809.973 770.506Z" fill="#4D3625"/>
<path d="M809.973 752.007C809.973 752.007 828.863 766.287 843.038 782.902C857.213 799.517 866.673 818.468 866.673 818.468C866.673 818.468 842.64 824.013 818.713 823.844C794.785 823.675 770.964 817.793 770.964 817.793C770.964 817.793 775.968 798.42 785.721 781.973C795.473 765.527 809.973 752.007 809.973 752.007Z" fill="#457235"/>
<path d="M811.212 721.547C811.212 721.547 827.23 733.656 839.25 747.746C851.27 761.835 859.292 777.904 859.292 777.904C859.292 777.904 838.913 782.606 818.623 782.463C798.334 782.32 778.134 777.332 778.134 777.332C778.134 777.332 782.377 760.904 790.647 746.958C798.917 733.012 811.212 721.547 811.212 721.547Z" fill="#457235"/>
<path d="M812.135 694.833C812.135 694.833 826.183 705.453 836.725 717.81C847.267 730.167 854.302 744.26 854.302 744.26C854.302 744.26 836.429 748.384 818.634 748.258C800.84 748.133 783.124 743.758 783.124 743.758C783.124 743.758 786.846 729.35 794.098 717.119C801.351 704.888 812.135 694.833 812.135 694.833Z" fill="#457235"/>
<path d="M882.733 760.574H891.473H900.212C900.212 760.574 896.518 780.048 896.518 798.408C896.518 816.768 900.212 834.014 900.212 834.014C900.212 834.014 898.942 837.177 892.064 837.201C885.186 837.224 882.936 834.014 882.936 834.014C882.936 834.014 886.086 816.027 886.086 797.667C886.086 779.307 882.733 760.574 882.733 760.574Z" fill="#4D3625"/>
<path d="M882.733 742.075C882.733 742.075 901.623 756.355 915.798 772.97C929.973 789.586 939.433 808.536 939.433 808.536C939.433 808.536 915.4 814.081 891.473 813.912C867.546 813.744 843.724 807.861 843.724 807.861C843.724 807.861 848.729 788.488 858.481 772.042C868.233 755.595 882.733 742.075 882.733 742.075Z" fill="#457235"/>
<path d="M883.973 711.616C883.973 711.616 899.991 723.725 912.01 737.814C924.03 751.903 932.052 767.972 932.052 767.972C932.052 767.972 911.673 772.674 891.383 772.531C871.094 772.388 850.894 767.4 850.894 767.4C850.894 767.4 855.138 750.972 863.407 737.026C871.677 723.08 883.973 711.616 883.973 711.616Z" fill="#457235"/>
<path d="M884.895 684.902C884.895 684.902 898.943 695.522 909.485 707.878C920.027 720.235 931.327 733.747 931.327 733.747C931.327 733.747 909.189 738.452 891.394 738.327C873.6 738.201 855.884 733.826 855.884 733.826C855.884 733.826 865.226 722.574 872.479 710.343C879.732 698.112 884.895 684.902 884.895 684.902Z" fill="#457235"/>
<path d="M772.819 779.947H782.648H792.478C792.478 779.947 788.323 801.85 788.323 822.501C788.323 843.151 792.478 862.549 792.478 862.549C792.478 862.549 791.05 866.107 783.313 866.133C775.577 866.159 773.046 862.549 773.046 862.549C773.046 862.549 776.589 842.317 776.589 821.667C776.589 801.016 772.819 779.947 772.819 779.947Z" fill="#4D3625"/>
<path d="M772.819 759.14C772.819 759.14 794.065 775.201 810.008 793.889C825.952 812.578 836.592 833.892 836.592 833.892C836.592 833.892 809.561 840.129 782.648 839.939C755.736 839.749 728.942 833.133 728.942 833.133C728.942 833.133 734.571 811.343 745.54 792.845C756.509 774.347 772.819 759.14 772.819 759.14Z" fill="#3B5A31"/>
<path d="M774.212 724.88C774.212 724.88 792.229 738.5 805.748 754.347C819.268 770.194 828.29 788.268 828.29 788.268C828.29 788.268 805.369 793.557 782.548 793.396C759.727 793.235 737.007 787.624 737.007 787.624C737.007 787.624 741.78 769.147 751.081 753.461C760.383 737.775 774.212 724.88 774.212 724.88Z" fill="#3B5A31"/>
<path d="M775.25 694.833C775.25 694.833 786.586 708.157 798.443 722.055C810.3 735.953 822.678 750.426 822.678 750.426C822.678 750.426 802.575 755.065 782.56 754.924C762.546 754.782 742.619 749.862 742.619 749.862C742.619 749.862 748.094 737.792 756.252 724.035C764.409 710.278 775.25 694.833 775.25 694.833Z" fill="#3B5A31"/>
<path d="M891.056 778.783H899.746H908.436C908.436 778.783 904.762 798.146 904.762 816.402C904.762 834.658 908.436 851.807 908.436 851.807C908.436 851.807 907.173 854.952 900.334 854.975C893.494 854.998 891.257 851.807 891.257 851.807C891.257 851.807 894.389 833.921 894.389 815.665C894.389 797.409 891.056 778.783 891.056 778.783Z" fill="#4D3625"/>
<path d="M891.056 760.388C891.056 760.388 909.839 774.588 923.933 791.109C938.028 807.63 947.434 826.473 947.434 826.473C947.434 826.473 923.538 831.986 899.746 831.819C875.954 831.651 852.267 825.801 852.267 825.801C852.267 825.801 857.244 806.538 866.941 790.185C876.638 773.832 891.056 760.388 891.056 760.388Z" fill="#3B5A31"/>
<path d="M892.288 730.101C892.288 730.101 908.215 742.142 920.167 756.151C932.119 770.161 940.095 786.139 940.095 786.139C940.095 786.139 919.832 790.814 899.657 790.672C879.482 790.53 859.397 785.57 859.397 785.57C859.397 785.57 863.616 769.235 871.839 755.368C880.062 741.501 892.288 730.101 892.288 730.101Z" fill="#3B5A31"/>
<path d="M893.205 703.539C893.205 703.539 907.174 714.099 917.656 726.385C928.138 738.672 935.133 752.685 935.133 752.685C935.133 752.685 917.362 756.786 899.668 756.661C881.974 756.536 864.358 752.186 864.358 752.186C864.358 752.186 868.059 737.86 875.271 725.699C882.483 713.537 893.205 703.539 893.205 703.539Z" fill="#3B5A31"/>
<path d="M668.013 792.066H676.703H685.393C685.393 792.066 681.719 811.429 681.719 829.685C681.719 847.941 685.393 865.089 685.393 865.089C685.393 865.089 684.13 868.234 677.29 868.257C670.451 868.28 668.214 865.089 668.214 865.089C668.214 865.089 671.346 847.204 671.346 828.948C671.346 810.692 668.013 792.066 668.013 792.066Z" fill="#4D3625"/>
<path d="M668.013 773.671C668.013 773.671 686.796 787.87 700.89 804.391C714.985 820.912 724.391 839.755 724.391 839.755C724.391 839.755 700.495 845.269 676.703 845.101C652.911 844.933 629.224 839.084 629.224 839.084C629.224 839.084 634.201 819.821 643.898 803.468C653.595 787.114 668.013 773.671 668.013 773.671Z" fill="#3B5A31"/>
<path d="M669.245 743.384C669.245 743.384 685.172 755.425 697.124 769.434C709.076 783.443 717.052 799.421 717.052 799.421C717.052 799.421 696.788 804.097 676.614 803.955C656.439 803.812 636.354 798.852 636.354 798.852C636.354 798.852 640.573 782.518 648.796 768.651C657.019 754.784 669.245 743.384 669.245 743.384Z" fill="#3B5A31"/>
<path d="M670.162 716.822C670.162 716.822 684.131 727.381 694.613 739.668C705.095 751.955 712.09 765.968 712.09 765.968C712.09 765.968 694.318 770.069 676.625 769.944C658.931 769.819 641.315 765.469 641.315 765.469C641.315 765.469 645.016 751.143 652.228 738.981C659.44 726.819 670.162 716.822 670.162 716.822Z" fill="#3B5A31"/>
<path d="M978.222 770.077H986.912H995.601C995.601 770.077 991.928 789.441 991.928 807.697C991.928 825.953 995.601 843.101 995.601 843.101C995.601 843.101 994.339 846.246 987.499 846.269C980.66 846.292 978.423 843.101 978.423 843.101C978.423 843.101 981.555 825.216 981.555 806.96C981.555 788.704 978.222 770.077 978.222 770.077Z" fill="#4D3625"/>
<path d="M978.222 751.683C978.222 751.683 997.004 765.882 1011.1 782.403C1025.19 798.924 1034.6 817.767 1034.6 817.767C1034.6 817.767 1010.7 823.281 986.912 823.113C963.12 822.945 939.433 817.096 939.433 817.096C939.433 817.096 944.409 797.833 954.106 781.48C963.804 765.126 978.222 751.683 978.222 751.683Z" fill="#3B5A31"/>
<path d="M979.454 721.396C979.454 721.396 995.381 733.436 1007.33 747.446C1019.28 761.455 1027.26 777.433 1027.26 777.433C1027.26 777.433 1007 782.109 986.823 781.967C966.648 781.824 946.562 776.864 946.562 776.864C946.562 776.864 950.782 760.53 959.005 746.663C967.228 732.796 979.454 721.396 979.454 721.396Z" fill="#3B5A31"/>
<path d="M980.371 694.833C980.371 694.833 994.339 705.393 1004.82 717.68C1015.3 729.966 1022.3 743.98 1022.3 743.98C1022.3 743.98 1004.53 748.08 986.833 747.956C969.14 747.831 951.524 743.481 951.524 743.481C951.524 743.481 955.225 729.155 962.437 716.993C969.648 704.831 980.371 694.833 980.371 694.833Z" fill="#3B5A31"/>
<path d="M746.217 780.044H754.267H762.317C762.317 780.044 758.914 797.981 758.914 814.892C758.914 831.803 762.317 847.688 762.317 847.688C762.317 847.688 761.147 850.602 754.812 850.623C748.476 850.645 746.404 847.688 746.404 847.688C746.404 847.688 749.305 831.12 749.305 814.209C749.305 797.298 746.217 780.044 746.217 780.044Z" fill="#4D3625"/>
<path d="M746.217 763.005C746.217 763.005 763.617 776.158 776.673 791.462C789.729 806.766 798.443 824.221 798.443 824.221C798.443 824.221 776.306 829.328 754.267 829.173C732.228 829.017 710.286 823.599 710.286 823.599C710.286 823.599 714.896 805.755 723.879 790.606C732.862 775.458 746.217 763.005 746.217 763.005Z" fill="#3B5A31"/>
<path d="M747.359 734.949C747.359 734.949 762.113 746.102 773.184 759.08C784.255 772.057 791.644 786.858 791.644 786.858C791.644 786.858 772.873 791.189 754.185 791.057C735.496 790.926 716.89 786.331 716.89 786.331C716.89 786.331 720.799 771.2 728.416 758.354C736.034 745.509 747.359 734.949 747.359 734.949Z" fill="#3B5A31"/>
<path d="M748.208 710.343C748.208 710.343 761.148 720.125 770.858 731.506C780.568 742.888 787.048 755.869 787.048 755.869C787.048 755.869 770.585 759.668 754.195 759.552C737.805 759.436 721.487 755.407 721.487 755.407C721.487 755.407 724.915 742.136 731.595 730.87C738.276 719.604 748.208 710.343 748.208 710.343Z" fill="#3B5A31"/>
<path d="M714.44 788.653H724.27H734.1C734.1 788.653 729.945 810.556 729.945 831.206C729.945 851.857 734.1 871.255 734.1 871.255C734.1 871.255 732.671 874.812 724.935 874.838C717.199 874.864 714.668 871.255 714.668 871.255C714.668 871.255 718.211 851.023 718.211 830.372C718.211 809.722 714.44 788.653 714.44 788.653Z" fill="#4D3625"/>
<path d="M714.44 767.845C714.44 767.845 735.687 783.907 751.63 802.595C767.574 821.283 778.214 842.597 778.214 842.597C778.214 842.597 751.183 848.835 724.27 848.645C697.358 848.455 670.564 841.838 670.564 841.838C670.564 841.838 676.193 820.049 687.162 801.55C698.131 783.052 714.44 767.845 714.44 767.845Z" fill="#457235"/>
<path d="M715.834 733.586C715.834 733.586 733.851 747.205 747.37 763.052C760.889 778.899 769.912 796.973 769.912 796.973C769.912 796.973 746.99 802.262 724.17 802.101C701.349 801.94 678.629 796.329 678.629 796.329C678.629 796.329 683.402 777.852 692.703 762.166C702.005 746.481 715.834 733.586 715.834 733.586Z" fill="#457235"/>
<path d="M716.872 703.539C716.872 703.539 732.672 715.484 744.529 729.382C756.386 743.28 764.299 759.132 764.299 759.132C764.299 759.132 744.197 763.77 724.182 763.629C704.167 763.488 684.241 758.567 684.241 758.567C684.241 758.567 688.427 742.362 696.585 728.605C704.743 714.848 716.872 703.539 716.872 703.539Z" fill="#457235"/>
<path d="M949.969 788.653H959.798H969.628C969.628 788.653 965.473 810.556 965.473 831.206C965.473 851.857 969.628 871.255 969.628 871.255C969.628 871.255 968.2 874.812 960.463 874.838C952.727 874.864 950.196 871.255 950.196 871.255C950.196 871.255 953.739 851.023 953.739 830.372C953.739 809.722 949.969 788.653 949.969 788.653Z" fill="#4D3625"/>
<path d="M949.969 767.845C949.969 767.845 971.073 789.458 987.016 808.146C1002.96 826.834 1013.74 842.597 1013.74 842.597C1013.74 842.597 986.711 848.835 959.798 848.645C932.886 848.455 906.092 841.838 906.092 841.838C906.092 841.838 920.357 821.238 931.327 802.74C942.296 784.242 949.969 767.845 949.969 767.845Z" fill="#457235"/>
<path d="M951.362 733.586C951.362 733.586 973.497 753.535 987.016 769.381C1000.54 785.228 1005.44 796.973 1005.44 796.973C1005.44 796.973 982.519 802.262 959.698 802.101C936.877 801.94 914.157 796.329 914.157 796.329C914.157 796.329 922.025 785.067 931.327 769.381C940.628 753.695 951.362 733.586 951.362 733.586Z" fill="#457235"/>
<path d="M952.4 703.539C952.4 703.539 965.188 718.458 977.045 732.356C988.902 746.254 999.828 759.132 999.828 759.132C999.828 759.132 979.725 763.77 959.71 763.629C939.696 763.488 919.769 758.567 919.769 758.567C919.769 758.567 923.955 742.362 932.113 728.605C940.271 714.848 952.4 703.539 952.4 703.539Z" fill="#457235"/>
<path d="M842.319 779.947H852.149H861.979C861.979 779.947 857.823 801.85 857.823 822.501C857.823 843.151 861.979 862.549 861.979 862.549C861.979 862.549 860.55 866.107 852.814 866.133C845.077 866.159 842.547 862.549 842.547 862.549C842.547 862.549 846.089 842.317 846.089 821.667C846.089 801.016 842.319 779.947 842.319 779.947Z" fill="#4D3625"/>
<path d="M842.319 759.14C842.319 759.14 863.565 775.201 879.509 793.889C895.452 812.578 906.092 833.892 906.092 833.892C906.092 833.892 879.061 840.129 852.149 839.939C825.236 839.749 798.443 833.133 798.443 833.133C798.443 833.133 804.072 811.343 815.041 792.845C826.01 774.347 842.319 759.14 842.319 759.14Z" fill="#3B662B"/>
<path d="M843.713 724.88C843.713 724.88 861.729 738.5 875.249 754.347C888.768 770.194 897.79 788.268 897.79 788.268C897.79 788.268 874.869 793.557 852.048 793.396C829.227 793.235 806.507 787.624 806.507 787.624C806.507 787.624 811.28 769.147 820.582 753.461C829.883 737.775 843.713 724.88 843.713 724.88Z" fill="#3B662B"/>
<path d="M844.75 694.833C844.75 694.833 854.816 706.778 866.673 720.677C878.53 734.575 892.178 750.426 892.178 750.426C892.178 750.426 872.075 755.065 852.06 754.924C832.046 754.782 812.12 749.862 812.12 749.862C812.12 749.862 820.211 736.643 828.369 722.886C836.526 709.129 844.75 694.833 844.75 694.833Z" fill="#3B662B"/>
<path d="M529.929 771.022H538.278H546.628C546.628 771.022 543.098 789.627 543.098 807.167C543.098 824.708 546.628 841.184 546.628 841.184C546.628 841.184 545.414 844.206 538.843 844.228C532.272 844.25 530.122 841.184 530.122 841.184C530.122 841.184 533.131 823.999 533.131 806.459C533.131 788.918 529.929 771.022 529.929 771.022Z" fill="#4D3625"/>
<path d="M529.929 753.349C529.929 753.349 547.975 766.991 561.518 782.865C575.06 798.738 584.097 816.843 584.097 816.843C584.097 816.843 561.137 822.14 538.278 821.979C515.419 821.818 492.661 816.198 492.661 816.198C492.661 816.198 497.442 797.69 506.759 781.978C516.076 766.265 529.929 753.349 529.929 753.349Z" fill="#3B662B"/>
<path d="M531.113 724.249C531.113 724.249 546.416 735.818 557.899 749.278C569.382 762.738 577.046 778.09 577.046 778.09C577.046 778.09 557.577 782.582 538.193 782.445C518.809 782.309 499.511 777.543 499.511 777.543C499.511 777.543 503.565 761.849 511.465 748.525C519.366 735.202 531.113 724.249 531.113 724.249Z" fill="#3B662B"/>
<path d="M541.854 703.945C541.854 703.945 550.615 715.978 554.487 724.169C558.359 732.36 572.279 745.948 572.279 745.948C572.279 745.948 555.203 749.888 538.203 749.768C521.203 749.648 504.278 745.468 504.278 745.468C504.278 745.468 513.345 733.133 520.985 724.169C528.625 715.205 541.854 703.945 541.854 703.945Z" fill="#3B662B"/>
<path d="M417.026 784.332H425.765H434.505C434.505 784.332 430.81 803.806 430.81 822.166C430.81 840.526 434.505 857.772 434.505 857.772C434.505 857.772 433.235 860.935 426.356 860.958C419.478 860.981 417.228 857.772 417.228 857.772C417.228 857.772 420.378 839.785 420.378 821.425C420.378 803.065 417.026 784.332 417.026 784.332Z" fill="#4D3625"/>
<path d="M417.026 765.833C417.026 765.833 435.916 780.113 450.09 796.728C464.265 813.343 473.725 832.294 473.725 832.294C473.725 832.294 449.693 837.839 425.765 837.67C401.838 837.501 378.016 831.619 378.016 831.619C378.016 831.619 383.021 812.246 392.773 795.799C402.526 779.353 417.026 765.833 417.026 765.833Z" fill="#457235"/>
<path d="M418.265 735.373C418.265 735.373 434.283 747.482 446.303 761.572C458.323 775.661 466.344 791.73 466.344 791.73C466.344 791.73 445.965 796.432 425.676 796.289C405.386 796.146 385.186 791.158 385.186 791.158C385.186 791.158 389.43 774.73 397.7 760.784C405.969 746.838 418.265 735.373 418.265 735.373Z" fill="#457235"/>
<path d="M419.187 708.659C419.187 708.659 433.236 719.279 443.777 731.636C454.319 743.993 461.354 758.086 461.354 758.086C461.354 758.086 443.481 762.21 425.687 762.084C407.892 761.959 390.176 757.584 390.176 757.584C390.176 757.584 393.898 743.176 401.151 730.945C408.404 718.714 419.187 708.659 419.187 708.659Z" fill="#457235"/>
<path d="M489.786 774.4H498.525H507.265C507.265 774.4 503.57 793.874 503.57 812.234C503.57 830.594 507.265 847.84 507.265 847.84C507.265 847.84 505.995 851.003 499.116 851.026C492.238 851.05 489.988 847.84 489.988 847.84C489.988 847.84 493.138 829.853 493.138 811.493C493.138 793.133 489.786 774.4 489.786 774.4Z" fill="#4D3625"/>
<path d="M489.786 755.901C489.786 755.901 508.676 770.181 522.851 786.796C537.026 803.412 546.486 822.362 546.486 822.362C546.486 822.362 522.453 827.907 498.525 827.738C474.598 827.57 450.776 821.687 450.776 821.687C450.776 821.687 455.781 802.314 465.533 785.868C475.286 769.421 489.786 755.901 489.786 755.901Z" fill="#457235"/>
<path d="M491.025 725.442C491.025 725.442 507.043 737.551 519.063 751.64C531.083 765.729 539.105 781.798 539.105 781.798C539.105 781.798 518.725 786.5 498.436 786.357C478.146 786.214 457.946 781.226 457.946 781.226C457.946 781.226 462.19 764.798 470.46 750.852C478.729 736.906 491.025 725.442 491.025 725.442Z" fill="#457235"/>
<path d="M491.947 698.728C491.947 698.728 505.996 709.348 516.537 721.704C527.079 734.061 538.379 747.573 538.379 747.573C538.379 747.573 516.242 752.278 498.447 752.153C480.652 752.027 462.936 747.652 462.936 747.652C462.936 747.652 472.279 736.4 479.532 724.169C486.784 711.938 491.947 698.728 491.947 698.728Z" fill="#457235"/>
<path d="M379.871 793.773H389.701H399.531C399.531 793.773 395.375 815.676 395.375 836.327C395.375 856.977 399.531 876.375 399.531 876.375C399.531 876.375 398.102 879.933 390.366 879.959C382.629 879.985 380.099 876.375 380.099 876.375C380.099 876.375 383.641 856.143 383.641 835.493C383.641 814.842 379.871 793.773 379.871 793.773Z" fill="#4D3625"/>
<path d="M379.871 772.966C379.871 772.966 401.118 789.027 417.061 807.715C433.004 826.403 443.644 847.718 443.644 847.718C443.644 847.718 416.613 853.955 389.701 853.765C362.788 853.575 335.995 846.959 335.995 846.959C335.995 846.959 341.624 825.169 352.593 806.671C363.562 788.172 379.871 772.966 379.871 772.966Z" fill="#3B5A31"/>
<path d="M381.265 738.706C381.265 738.706 399.281 752.326 412.801 768.173C426.32 784.02 435.343 802.094 435.343 802.094C435.343 802.094 412.421 807.383 389.6 807.222C366.779 807.061 344.059 801.45 344.059 801.45C344.059 801.45 348.832 782.973 358.134 767.287C367.435 751.601 381.265 738.706 381.265 738.706Z" fill="#3B5A31"/>
<path d="M382.302 708.659C382.302 708.659 393.638 721.983 405.495 735.881C417.352 749.779 429.73 764.252 429.73 764.252C429.73 764.252 409.627 768.891 389.613 768.75C369.598 768.608 349.672 763.688 349.672 763.688C349.672 763.688 355.146 751.618 363.304 737.861C371.462 724.104 382.302 708.659 382.302 708.659Z" fill="#3B5A31"/>
<path d="M498.108 792.609H506.798H515.488C515.488 792.609 511.815 811.972 511.815 830.228C511.815 848.484 515.488 865.633 515.488 865.633C515.488 865.633 514.225 868.778 507.386 868.801C500.547 868.824 498.31 865.633 498.31 865.633C498.31 865.633 501.442 847.747 501.442 829.491C501.442 811.235 498.108 792.609 498.108 792.609Z" fill="#4D3625"/>
<path d="M498.108 774.214C498.108 774.214 516.891 788.414 530.986 804.935C545.08 821.456 554.487 840.299 554.487 840.299C554.487 840.299 530.59 845.812 506.798 845.645C483.007 845.477 459.32 839.627 459.32 839.627C459.32 839.627 464.296 820.364 473.993 804.011C483.69 787.658 498.108 774.214 498.108 774.214Z" fill="#3B5A31"/>
<path d="M499.341 743.927C499.341 743.927 515.268 755.968 527.22 769.977C539.171 783.987 547.148 799.965 547.148 799.965C547.148 799.965 526.884 804.64 506.709 804.498C486.535 804.356 466.449 799.396 466.449 799.396C466.449 799.396 470.669 783.061 478.892 769.194C487.115 755.327 499.341 743.927 499.341 743.927Z" fill="#3B5A31"/>
<path d="M500.258 717.365C500.258 717.365 514.226 727.925 524.708 740.211C535.19 752.498 542.186 766.511 542.186 766.511C542.186 766.511 524.414 770.612 506.72 770.487C489.027 770.362 471.411 766.012 471.411 766.012C471.411 766.012 475.112 751.686 482.323 739.525C489.535 727.363 500.258 717.365 500.258 717.365Z" fill="#3B5A31"/>
<path d="M585.274 783.903H593.964H602.654C602.654 783.903 598.98 803.267 598.98 821.523C598.98 839.779 602.654 856.927 602.654 856.927C602.654 856.927 601.391 860.072 594.552 860.095C587.712 860.118 585.475 856.927 585.475 856.927C585.475 856.927 588.607 839.042 588.607 820.786C588.607 802.53 585.274 783.903 585.274 783.903Z" fill="#4D3625"/>
<path d="M585.274 765.509C585.274 765.509 604.057 779.708 618.151 796.229C632.246 812.75 641.652 831.593 641.652 831.593C641.652 831.593 617.756 837.107 593.964 836.939C570.172 836.771 546.486 830.922 546.486 830.922C546.486 830.922 551.462 811.659 561.159 795.306C570.856 778.952 585.274 765.509 585.274 765.509Z" fill="#3B5A31"/>
<path d="M586.506 735.222C586.506 735.222 602.433 747.262 614.385 761.272C626.337 775.281 634.313 791.259 634.313 791.259C634.313 791.259 614.05 795.935 593.875 795.793C573.7 795.65 553.615 790.69 553.615 790.69C553.615 790.69 557.835 774.356 566.057 760.489C574.28 746.622 586.506 735.222 586.506 735.222Z" fill="#3B5A31"/>
<path d="M587.423 708.659C587.423 708.659 601.392 719.219 611.874 731.506C622.356 743.792 629.351 757.806 629.351 757.806C629.351 757.806 611.58 761.906 593.886 761.782C576.192 761.657 558.577 757.307 558.577 757.307C558.577 757.307 562.277 742.981 569.489 730.819C576.701 718.657 587.423 708.659 587.423 708.659Z" fill="#3B5A31"/>
<path d="M353.27 793.87H361.32H369.37C369.37 793.87 365.967 811.807 365.967 828.718C365.967 845.629 369.37 861.514 369.37 861.514C369.37 861.514 368.2 864.428 361.864 864.449C355.529 864.47 353.456 861.514 353.456 861.514C353.456 861.514 356.358 844.946 356.358 828.035C356.358 811.124 353.27 793.87 353.27 793.87Z" fill="#4D3625"/>
<path d="M353.27 776.831C353.27 776.831 370.669 789.984 383.725 805.288C396.782 820.592 405.495 838.047 405.495 838.047C405.495 838.047 383.359 843.154 361.32 842.999C339.281 842.843 317.339 837.425 317.339 837.425C317.339 837.425 321.949 819.581 330.931 804.432C339.914 789.284 353.27 776.831 353.27 776.831Z" fill="#3B5A31"/>
<path d="M354.411 748.775C354.411 748.775 369.165 759.928 380.237 772.906C391.308 785.883 398.697 800.684 398.697 800.684C398.697 800.684 379.926 805.015 361.237 804.883C342.549 804.752 323.943 800.157 323.943 800.157C323.943 800.157 327.852 785.026 335.469 772.18C343.086 759.335 354.411 748.775 354.411 748.775Z" fill="#3B5A31"/>
<path d="M355.261 724.169C355.261 724.169 368.201 733.951 377.91 745.332C387.62 756.714 394.1 769.695 394.1 769.695C394.1 769.695 377.638 773.494 361.247 773.378C344.857 773.262 328.539 769.233 328.539 769.233C328.539 769.233 331.967 755.962 338.648 744.696C345.328 733.43 355.261 724.169 355.261 724.169Z" fill="#3B5A31"/>
<path d="M321.493 802.478H331.323H341.153C341.153 802.478 336.997 824.382 336.997 845.032C336.997 865.683 341.153 885.081 341.153 885.081C341.153 885.081 339.724 888.638 331.988 888.664C324.251 888.69 321.721 885.081 321.721 885.081C321.721 885.081 325.263 864.849 325.263 844.198C325.263 823.548 321.493 802.478 321.493 802.478Z" fill="#4D3625"/>
<path d="M321.493 781.671C321.493 781.671 342.739 797.733 358.683 816.421C374.626 835.109 385.266 856.423 385.266 856.423C385.266 856.423 358.235 862.661 331.323 862.471C304.41 862.281 277.617 855.664 277.617 855.664C277.617 855.664 283.246 833.875 294.215 815.376C305.184 796.878 321.493 781.671 321.493 781.671Z" fill="#457235"/>
<path d="M322.887 747.412C322.887 747.412 340.903 761.031 354.422 776.878C367.942 792.725 376.964 810.799 376.964 810.799C376.964 810.799 354.043 816.088 331.222 815.927C308.401 815.766 285.681 810.155 285.681 810.155C285.681 810.155 290.454 791.678 299.756 775.992C309.057 760.307 322.887 747.412 322.887 747.412Z" fill="#457235"/>
<path d="M323.924 717.365C323.924 717.365 339.725 729.31 351.582 743.208C363.439 757.106 371.352 772.958 371.352 772.958C371.352 772.958 351.249 777.596 331.234 777.455C311.22 777.314 291.294 772.393 291.294 772.393C291.294 772.393 295.48 756.188 303.637 742.431C311.795 728.674 323.924 717.365 323.924 717.365Z" fill="#457235"/>
<path d="M557.021 802.478H566.851H576.681C576.681 802.478 572.525 824.382 572.525 845.032C572.525 865.683 576.681 885.081 576.681 885.081C576.681 885.081 575.252 888.638 567.516 888.664C559.779 888.69 557.249 885.081 557.249 885.081C557.249 885.081 560.791 864.849 560.791 844.198C560.791 823.548 557.021 802.478 557.021 802.478Z" fill="#4D3625"/>
<path d="M557.021 781.671C557.021 781.671 578.126 803.284 594.069 821.972C610.012 840.66 620.794 856.423 620.794 856.423C620.794 856.423 593.763 862.661 566.851 862.471C539.938 862.281 513.145 855.664 513.145 855.664C513.145 855.664 527.41 835.064 538.379 816.566C549.348 798.068 557.021 781.671 557.021 781.671Z" fill="#457235"/>
<path d="M558.415 747.412C558.415 747.412 580.549 767.361 594.069 783.207C607.588 799.054 612.493 810.799 612.493 810.799C612.493 810.799 589.571 816.088 566.75 815.927C543.929 815.766 521.209 810.155 521.209 810.155C521.209 810.155 529.078 798.893 538.379 783.207C547.68 767.521 558.415 747.412 558.415 747.412Z" fill="#457235"/>
<path d="M559.452 717.365C559.452 717.365 572.24 732.284 584.097 746.182C595.954 760.08 606.88 772.958 606.88 772.958C606.88 772.958 586.777 777.596 566.763 777.455C546.748 777.314 526.822 772.393 526.822 772.393C526.822 772.393 531.008 756.188 539.166 742.431C547.323 728.674 559.452 717.365 559.452 717.365Z" fill="#457235"/>
<path d="M449.371 793.773H459.201H469.031C469.031 793.773 464.876 815.676 464.876 836.327C464.876 856.977 469.031 876.375 469.031 876.375C469.031 876.375 467.603 879.933 459.866 879.959C452.13 879.985 449.599 876.375 449.599 876.375C449.599 876.375 453.142 856.143 453.142 835.493C453.142 814.842 449.371 793.773 449.371 793.773Z" fill="#4D3625"/>
<path d="M449.371 772.966C449.371 772.966 470.618 789.027 486.561 807.715C502.505 826.403 513.145 847.718 513.145 847.718C513.145 847.718 486.114 853.955 459.201 853.765C432.289 853.575 405.495 846.959 405.495 846.959C405.495 846.959 411.124 825.169 422.093 806.671C433.062 788.172 449.371 772.966 449.371 772.966Z" fill="#3B662B"/>
<path d="M450.765 738.706C450.765 738.706 468.782 752.326 482.301 768.173C495.82 784.02 504.843 802.094 504.843 802.094C504.843 802.094 481.921 807.383 459.101 807.222C436.28 807.061 413.56 801.45 413.56 801.45C413.56 801.45 418.333 782.973 427.634 767.287C436.936 751.601 450.765 738.706 450.765 738.706Z" fill="#3B662B"/>
<path d="M451.803 708.659C451.803 708.659 461.868 720.604 473.725 734.503C485.582 748.401 499.23 764.252 499.23 764.252C499.23 764.252 479.128 768.891 459.113 768.75C439.098 768.608 419.172 763.688 419.172 763.688C419.172 763.688 427.264 750.469 435.421 736.712C443.579 722.955 451.803 708.659 451.803 708.659Z" fill="#3B662B"/>
<path d="M232.131 790.042H240.48H248.829C248.829 790.042 245.3 808.646 245.3 826.187C245.3 843.727 248.829 860.203 248.829 860.203C248.829 860.203 247.616 863.225 241.045 863.247C234.474 863.269 232.324 860.203 232.324 860.203C232.324 860.203 235.333 843.019 235.333 825.478C235.333 807.938 232.131 790.042 232.131 790.042Z" fill="#4D3625"/>
<path d="M232.131 772.368C232.131 772.368 250.177 786.011 263.72 801.885C277.262 817.758 286.299 835.862 286.299 835.862C286.299 835.862 263.339 841.16 240.48 840.999C217.621 840.838 194.863 835.217 194.863 835.217C194.863 835.217 199.644 816.709 208.961 800.997C218.278 785.285 232.131 772.368 232.131 772.368Z" fill="#3B662B"/>
<path d="M233.315 743.269C233.315 743.269 248.618 754.837 260.101 768.297C271.584 781.758 279.248 797.109 279.248 797.109C279.248 797.109 259.778 801.602 240.395 801.465C221.011 801.328 201.713 796.563 201.713 796.563C201.713 796.563 205.767 780.868 213.667 767.545C221.568 754.221 233.315 743.269 233.315 743.269Z" fill="#3B662B"/>
<path d="M244.056 722.964C244.056 722.964 252.817 734.998 256.689 743.189C260.56 751.379 274.481 764.967 274.481 764.967C274.481 764.967 257.405 768.907 240.405 768.787C223.405 768.667 206.48 764.488 206.48 764.488C206.48 764.488 215.547 752.153 223.187 743.189C230.827 734.224 244.056 722.964 244.056 722.964Z" fill="#3B662B"/>
<path d="M119.228 803.352H127.967H136.707C136.707 803.352 133.012 822.826 133.012 841.186C133.012 859.546 136.707 876.792 136.707 876.792C136.707 876.792 135.437 879.955 128.558 879.978C121.68 880.001 119.43 876.792 119.43 876.792C119.43 876.792 122.58 858.804 122.58 840.444C122.58 822.084 119.228 803.352 119.228 803.352Z" fill="#4D3625"/>
<path d="M119.228 784.852C119.228 784.852 138.118 799.133 152.292 815.748C166.467 832.363 175.927 851.313 175.927 851.313C175.927 851.313 151.895 856.859 127.967 856.69C104.04 856.521 80.2183 850.638 80.2183 850.638C80.2183 850.638 85.2229 831.265 94.9753 814.819C104.728 798.373 119.228 784.852 119.228 784.852Z" fill="#457235"/>
<path d="M120.467 754.393C120.467 754.393 136.485 766.502 148.505 780.591C160.525 794.68 168.546 810.75 168.546 810.75C168.546 810.75 148.167 815.452 127.878 815.309C107.588 815.166 87.3882 810.177 87.3882 810.177C87.3882 810.177 91.6319 793.75 99.9017 779.804C108.171 765.858 120.467 754.393 120.467 754.393Z" fill="#457235"/>
<path d="M121.389 727.679C121.389 727.679 135.437 738.299 145.979 750.656C156.521 763.012 163.556 777.106 163.556 777.106C163.556 777.106 145.683 781.23 127.889 781.104C110.094 780.979 92.3782 776.604 92.3782 776.604C92.3782 776.604 96.1001 762.196 103.353 749.965C110.606 737.734 121.389 727.679 121.389 727.679Z" fill="#457235"/>
<path d="M191.988 793.42H200.727H209.467C209.467 793.42 205.772 812.894 205.772 831.254C205.772 849.614 209.467 866.86 209.467 866.86C209.467 866.86 208.197 870.023 201.318 870.046C194.44 870.069 192.19 866.86 192.19 866.86C192.19 866.86 195.34 848.872 195.34 830.512C195.34 812.152 191.988 793.42 191.988 793.42Z" fill="#4D3625"/>
<path d="M191.988 774.921C191.988 774.921 210.878 789.201 225.053 805.816C239.228 822.431 248.687 841.381 248.687 841.381C248.687 841.381 224.655 846.927 200.727 846.758C176.8 846.589 152.978 840.706 152.978 840.706C152.978 840.706 157.983 821.334 167.735 804.887C177.488 788.441 191.988 774.921 191.988 774.921Z" fill="#457235"/>
<path d="M193.227 744.461C193.227 744.461 209.245 756.57 221.265 770.659C233.285 784.749 241.307 800.818 241.307 800.818C241.307 800.818 220.927 805.52 200.638 805.377C180.348 805.234 160.148 800.245 160.148 800.245C160.148 800.245 164.392 783.818 172.662 769.872C180.931 755.926 193.227 744.461 193.227 744.461Z" fill="#457235"/>
<path d="M194.149 717.747C194.149 717.747 208.198 728.367 218.739 740.724C229.281 753.081 240.581 766.592 240.581 766.592C240.581 766.592 218.443 771.298 200.649 771.172C182.854 771.047 165.138 766.672 165.138 766.672C165.138 766.672 174.481 755.42 181.734 743.189C188.986 730.958 194.149 717.747 194.149 717.747Z" fill="#457235"/>
<path d="M82.073 812.793H91.9028H101.733C101.733 812.793 97.5773 834.696 97.5773 855.347C97.5773 875.997 101.733 895.395 101.733 895.395C101.733 895.395 100.304 898.952 92.5676 898.978C84.8312 899.004 82.3007 895.395 82.3007 895.395C82.3007 895.395 85.8434 875.163 85.8434 854.513C85.8434 833.862 82.073 812.793 82.073 812.793Z" fill="#4D3625"/>
<path d="M82.073 791.985C82.073 791.985 103.32 808.047 119.263 826.735C135.206 845.423 145.846 866.738 145.846 866.738C145.846 866.738 118.815 872.975 91.9028 872.785C64.9904 872.595 38.1967 865.978 38.1967 865.978C38.1967 865.978 43.8257 844.189 54.7948 825.69C65.7639 807.192 82.073 791.985 82.073 791.985Z" fill="#3B5A31"/>
<path d="M83.4668 757.726C83.4668 757.726 101.483 771.346 115.003 787.192C128.522 803.039 137.545 821.113 137.545 821.113C137.545 821.113 114.623 826.402 91.8022 826.241C68.9813 826.08 46.2611 820.47 46.2611 820.47C46.2611 820.47 51.0343 801.993 60.3358 786.307C69.6372 770.621 83.4668 757.726 83.4668 757.726Z" fill="#3B5A31"/>
<path d="M84.5042 727.679C84.5042 727.679 95.8401 741.002 107.697 754.901C119.554 768.799 131.932 783.272 131.932 783.272C131.932 783.272 111.829 787.91 91.8146 787.769C71.8 787.628 51.8737 782.707 51.8737 782.707C51.8737 782.707 57.3484 770.637 65.5061 756.88C73.6637 743.123 84.5042 727.679 84.5042 727.679Z" fill="#3B5A31"/>
<path d="M200.31 811.629H209H217.69C217.69 811.629 214.017 830.992 214.017 849.248C214.017 867.504 217.69 884.652 217.69 884.652C217.69 884.652 216.427 887.797 209.588 887.82C202.749 887.843 200.512 884.652 200.512 884.652C200.512 884.652 203.644 866.767 203.644 848.511C203.644 830.255 200.31 811.629 200.31 811.629Z" fill="#4D3625"/>
<path d="M200.31 793.234C200.31 793.234 219.093 807.433 233.188 823.954C247.282 840.475 256.689 859.318 256.689 859.318C256.689 859.318 232.792 864.832 209 864.664C185.209 864.496 161.522 858.647 161.522 858.647C161.522 858.647 166.498 839.384 176.195 823.031C185.892 806.677 200.31 793.234 200.31 793.234Z" fill="#3B5A31"/>
<path d="M201.543 762.947C201.543 762.947 217.47 774.988 229.422 788.997C241.373 803.006 249.35 818.984 249.35 818.984C249.35 818.984 229.086 823.66 208.911 823.518C188.737 823.375 168.651 818.415 168.651 818.415C168.651 818.415 172.871 802.081 181.094 788.214C189.317 774.347 201.543 762.947 201.543 762.947Z" fill="#3B5A31"/>
<path d="M202.46 736.385C202.46 736.385 216.428 746.944 226.91 759.231C237.392 771.518 244.388 785.531 244.388 785.531C244.388 785.531 226.616 789.632 208.922 789.507C191.229 789.382 173.613 785.032 173.613 785.032C173.613 785.032 177.314 770.706 184.525 758.544C191.737 746.382 202.46 736.385 202.46 736.385Z" fill="#3B5A31"/>
<path d="M287.476 802.923H296.166H304.856C304.856 802.923 301.182 822.287 301.182 840.542C301.182 858.798 304.856 875.947 304.856 875.947C304.856 875.947 303.593 879.092 296.754 879.115C289.914 879.138 287.677 875.947 287.677 875.947C287.677 875.947 290.809 858.061 290.809 839.805C290.809 821.549 287.476 802.923 287.476 802.923Z" fill="#4D3625"/>
<path d="M287.476 784.528C287.476 784.528 306.259 798.728 320.353 815.249C334.448 831.77 343.854 850.613 343.854 850.613C343.854 850.613 319.958 856.127 296.166 855.959C272.374 855.791 248.687 849.942 248.687 849.942C248.687 849.942 253.664 830.678 263.361 814.325C273.058 797.972 287.476 784.528 287.476 784.528Z" fill="#3B5A31"/>
<path d="M288.708 754.242C288.708 754.242 304.635 766.282 316.587 780.291C328.539 794.301 336.515 810.279 336.515 810.279C336.515 810.279 316.252 814.954 296.077 814.812C275.902 814.67 255.817 809.71 255.817 809.71C255.817 809.71 260.036 793.375 268.259 779.508C276.482 765.641 288.708 754.242 288.708 754.242Z" fill="#3B5A31"/>
<path d="M289.625 727.679C289.625 727.679 303.594 738.239 314.076 750.526C324.558 762.812 331.553 776.825 331.553 776.825C331.553 776.825 313.782 780.926 296.088 780.801C278.394 780.677 260.778 776.326 260.778 776.326C260.778 776.326 264.479 762.001 271.691 749.839C278.903 737.677 289.625 727.679 289.625 727.679Z" fill="#3B5A31"/>
<path d="M55.4719 812.89H63.5217H71.5715C71.5715 812.89 68.1686 830.827 68.1686 847.738C68.1686 864.649 71.5715 880.534 71.5715 880.534C71.5715 880.534 70.4016 883.448 64.0661 883.469C57.7305 883.49 55.6583 880.534 55.6583 880.534C55.6583 880.534 58.5595 863.966 58.5595 847.055C58.5595 830.144 55.4719 812.89 55.4719 812.89Z" fill="#4D3625"/>
<path d="M55.472 795.85C55.472 795.85 72.8711 809.003 85.9274 824.307C98.9837 839.611 107.697 857.066 107.697 857.066C107.697 857.066 85.5608 862.174 63.5218 862.019C41.4827 861.863 19.5408 856.445 19.5408 856.445C19.5408 856.445 24.1505 838.601 33.1333 823.452C42.1161 808.303 55.472 795.85 55.472 795.85Z" fill="#3B5A31"/>
<path d="M56.6134 767.794C56.6134 767.794 71.3673 778.948 82.4386 791.925C93.5099 804.903 100.899 819.704 100.899 819.704C100.899 819.704 82.1278 824.035 63.4393 823.903C44.7509 823.771 26.1449 819.176 26.1449 819.176C26.1449 819.176 30.0538 804.045 37.6709 791.2C45.288 778.354 56.6134 767.794 56.6134 767.794Z" fill="#3B5A31"/>
<path d="M57.4629 743.189C57.4629 743.189 70.4025 752.971 80.1124 764.352C89.8223 775.734 96.3024 788.715 96.3024 788.715C96.3024 788.715 79.8398 792.513 63.4495 792.398C47.0592 792.282 30.7411 788.252 30.7411 788.252C30.7411 788.252 34.1693 774.982 40.8498 763.716C47.5302 752.45 57.4629 743.189 57.4629 743.189Z" fill="#3B5A31"/>
<path d="M23.6949 821.498H33.5247H43.3545C43.3545 821.498 39.1992 843.402 39.1992 864.052C39.1992 884.703 43.3545 904.1 43.3545 904.1C43.3545 904.1 41.926 907.658 34.1895 907.684C26.453 907.71 23.9226 904.1 23.9226 904.1C23.9226 904.1 27.4653 883.869 27.4653 863.218C27.4653 842.568 23.6949 821.498 23.6949 821.498Z" fill="#4D3625"/>
<path d="M23.6949 800.691C23.6949 800.691 44.9414 816.753 60.8847 835.441C76.8281 854.129 87.4682 875.443 87.4682 875.443C87.4682 875.443 60.4371 881.68 33.5247 881.49C6.61229 881.301 -20.1814 874.684 -20.1814 874.684C-20.1814 874.684 -14.5524 852.894 -3.58336 834.396C7.38573 815.898 23.6949 800.691 23.6949 800.691Z" fill="#457235"/>
<path d="M25.0888 766.431C25.0888 766.431 43.1051 780.051 56.6246 795.898C70.144 811.745 79.1665 829.819 79.1665 829.819C79.1665 829.819 56.245 835.108 33.4241 834.947C10.6033 834.786 -12.1169 829.175 -12.1169 829.175C-12.1169 829.175 -7.34375 810.698 1.95768 795.012C11.2591 779.326 25.0888 766.431 25.0888 766.431Z" fill="#457235"/>
<path d="M26.1261 736.385C26.1261 736.385 41.927 748.33 53.7839 762.228C65.6409 776.126 73.5539 791.977 73.5539 791.977C73.5539 791.977 53.451 796.616 33.4364 796.475C13.4218 796.334 -6.50452 791.413 -6.50452 791.413C-6.50452 791.413 -2.31827 775.208 5.83936 761.451C13.997 747.694 26.1261 736.385 26.1261 736.385Z" fill="#457235"/>
<path d="M259.223 821.498H269.053H278.883C278.883 821.498 274.727 843.402 274.727 864.052C274.727 884.703 278.883 904.1 278.883 904.1C278.883 904.1 277.454 907.658 269.718 907.684C261.981 907.71 259.451 904.1 259.451 904.1C259.451 904.1 262.993 883.869 262.993 863.218C262.993 842.568 259.223 821.498 259.223 821.498Z" fill="#4D3625"/>
<path d="M259.223 800.691C259.223 800.691 280.328 822.304 296.271 840.992C312.214 859.68 322.996 875.443 322.996 875.443C322.996 875.443 295.965 881.68 269.053 881.49C242.14 881.301 215.347 874.684 215.347 874.684C215.347 874.684 229.612 854.084 240.581 835.586C251.55 817.087 259.223 800.691 259.223 800.691Z" fill="#457235"/>
<path d="M260.617 766.431C260.617 766.431 282.751 786.38 296.271 802.227C309.79 818.074 314.695 829.819 314.695 829.819C314.695 829.819 291.773 835.108 268.952 834.947C246.131 834.786 223.411 829.175 223.411 829.175C223.411 829.175 231.28 817.913 240.581 802.227C249.882 786.541 260.617 766.431 260.617 766.431Z" fill="#457235"/>
<path d="M261.654 736.385C261.654 736.385 274.442 751.304 286.299 765.202C298.156 779.1 309.082 791.977 309.082 791.977C309.082 791.977 288.979 796.616 268.965 796.475C248.95 796.334 229.024 791.413 229.024 791.413C229.024 791.413 233.21 775.208 241.368 761.451C249.525 747.694 261.654 736.385 261.654 736.385Z" fill="#457235"/>
<path d="M151.573 812.793H161.403H171.233C171.233 812.793 167.078 834.696 167.078 855.347C167.078 875.997 171.233 895.395 171.233 895.395C171.233 895.395 169.804 898.952 162.068 898.978C154.332 899.004 151.801 895.395 151.801 895.395C151.801 895.395 155.344 875.163 155.344 854.513C155.344 833.862 151.573 812.793 151.573 812.793Z" fill="#4D3625"/>
<path d="M151.573 791.985C151.573 791.985 172.82 808.047 188.763 826.735C204.707 845.423 215.347 866.738 215.347 866.738C215.347 866.738 188.316 872.975 161.403 872.785C134.491 872.595 107.697 865.978 107.697 865.978C107.697 865.978 113.326 844.189 124.295 825.69C135.264 807.192 151.573 791.985 151.573 791.985Z" fill="#3B662B"/>
<path d="M152.967 757.726C152.967 757.726 170.984 771.346 184.503 787.192C198.022 803.039 207.045 821.113 207.045 821.113C207.045 821.113 184.123 826.402 161.303 826.241C138.482 826.08 115.762 820.47 115.762 820.47C115.762 820.47 120.535 801.993 129.836 786.307C139.138 770.621 152.967 757.726 152.967 757.726Z" fill="#3B662B"/>
<path d="M154.005 727.679C154.005 727.679 164.07 739.624 175.927 753.522C187.784 767.42 201.432 783.272 201.432 783.272C201.432 783.272 181.33 787.91 161.315 787.769C141.3 787.628 121.374 782.707 121.374 782.707C121.374 782.707 129.466 769.489 137.623 755.732C145.781 741.975 154.005 727.679 154.005 727.679Z" fill="#3B662B"/>
<path d="M1157.44 937.449C1152.91 862.891 1299.42 848.226 1481.84 848.226C1664.26 848.226 1864.03 876.519 1864.03 950.065C1864.03 1023.61 1664.26 1007.02 1481.84 1007.02C1299.42 1007.02 1161.97 1012.01 1157.44 937.449Z" fill="#71ABB9"/>
<path d="M1247.03 909.672H1252.09H1257.14V916.177V922.682C1257.14 922.682 1256.28 924.277 1252.18 924.208C1248.08 924.14 1247.03 922.682 1247.03 922.682V916.177V909.672Z" fill="#402617"/>
<path d="M1247.03 909.736C1247.03 908.603 1249.3 907.684 1252.09 907.684C1254.88 907.684 1257.14 908.603 1257.14 909.736C1257.14 910.87 1254.88 911.789 1252.09 911.789C1249.3 911.789 1247.03 910.87 1247.03 909.736Z" fill="url(#paint3_linear_2_226)"/>
<path d="M1215.02 909.672H1220.07H1225.12V916.177V922.682C1225.12 922.682 1224.26 924.277 1220.16 924.208C1216.06 924.14 1215.02 922.682 1215.02 922.682V916.177V909.672Z" fill="#402617"/>
<path d="M1215.02 909.736C1215.02 908.603 1217.28 907.684 1220.07 907.684C1222.86 907.684 1225.12 908.603 1225.12 909.736C1225.12 910.87 1222.86 911.789 1220.07 911.789C1217.28 911.789 1215.02 910.87 1215.02 909.736Z" fill="url(#paint4_linear_2_226)"/>
<path d="M1279.05 909.672H1284.1H1289.16V916.177V922.682C1289.16 922.682 1288.3 924.277 1284.2 924.208C1280.09 924.14 1279.05 922.682 1279.05 922.682V916.177V909.672Z" fill="#402617"/>
<path d="M1279.05 909.736C1279.05 908.603 1281.31 907.684 1284.1 907.684C1286.9 907.684 1289.16 908.603 1289.16 909.736C1289.16 910.87 1286.9 911.789 1284.1 911.789C1281.31 911.789 1279.05 910.87 1279.05 909.736Z" fill="url(#paint5_linear_2_226)"/>
<path d="M1311.07 909.663H1316.12H1321.17V916.172V922.681C1321.17 922.681 1320.32 924.277 1316.21 924.208C1312.11 924.14 1311.07 922.681 1311.07 922.681V916.172V909.663Z" fill="#402617"/>
<path d="M1311.07 909.736C1311.07 908.603 1313.33 907.684 1316.12 907.684C1318.91 907.684 1321.17 908.603 1321.17 909.736C1321.17 910.87 1318.91 911.789 1316.12 911.789C1313.33 911.789 1311.07 910.87 1311.07 909.736Z" fill="url(#paint6_linear_2_226)"/>
<path d="M1128.85 918.228V911.608L1338.76 936.813V943.432H1139.39L1128.85 918.228Z" fill="#402617"/>
<path d="M1128.85 911.608H1322.36L1338.76 936.813H1139.39L1128.85 911.608Z" fill="url(#paint7_linear_2_226)"/>
<path d="M1264.62 938.77H1269.67H1274.72V945.275V951.78C1274.72 951.78 1273.86 953.374 1269.76 953.306C1265.66 953.238 1264.62 951.78 1264.62 951.78V945.275V938.77Z" fill="#402617"/>
<path d="M1264.62 938.834C1264.62 937.701 1266.88 936.782 1269.67 936.782C1272.46 936.782 1274.72 937.701 1274.72 938.834C1274.72 939.968 1272.46 940.887 1269.67 940.887C1266.88 940.887 1264.62 939.968 1264.62 938.834Z" fill="url(#paint8_linear_2_226)"/>
<path d="M1232.6 938.77H1237.65H1242.71V945.275V951.78C1242.71 951.78 1241.85 953.374 1237.74 953.306C1233.64 953.238 1232.6 951.78 1232.6 951.78V945.275V938.77Z" fill="#402617"/>
<path d="M1232.6 938.834C1232.6 937.701 1234.86 936.782 1237.65 936.782C1240.44 936.782 1242.71 937.701 1242.71 938.834C1242.71 939.968 1240.44 940.887 1237.65 940.887C1234.86 940.887 1232.6 939.968 1232.6 938.834Z" fill="url(#paint9_linear_2_226)"/>
<path d="M1296.64 938.77H1301.69H1306.74V945.275V951.78C1306.74 951.78 1305.88 953.374 1301.78 953.306C1297.68 953.238 1296.64 951.78 1296.64 951.78V945.275V938.77Z" fill="#402617"/>
<path d="M1296.64 938.834C1296.64 937.701 1298.9 936.782 1301.69 936.782C1304.48 936.782 1306.74 937.701 1306.74 938.834C1306.74 939.968 1304.48 940.887 1301.69 940.887C1298.9 940.887 1296.64 939.968 1296.64 938.834Z" fill="url(#paint10_linear_2_226)"/>
<path d="M1328.65 938.761H1333.71H1338.76V945.27V951.779C1338.76 951.779 1337.9 953.375 1333.8 953.306C1329.69 953.238 1328.65 951.779 1328.65 951.779V945.27V938.761Z" fill="#402617"/>
<path d="M1328.65 938.834C1328.65 937.701 1330.92 936.782 1333.71 936.782C1336.5 936.782 1338.76 937.701 1338.76 938.834C1338.76 939.968 1336.5 940.887 1333.71 940.887C1330.92 940.887 1328.65 939.968 1328.65 938.834Z" fill="url(#paint11_linear_2_226)"/>
<path d="M1630.61 682.425C1630.61 673.421 1655.12 666.121 1685.36 666.121C1715.59 666.121 1740.1 673.421 1740.1 682.425C1740.1 691.428 1715.59 698.728 1685.36 698.728C1655.12 698.728 1630.61 691.428 1630.61 682.425Z" fill="black" fill-opacity="0.301802"/>
<path d="M1655.5 662.866C1655.5 648.584 1665.76 628.333 1686.04 628.552C1706.32 628.77 1716.85 648.584 1716.85 662.866C1716.85 677.148 1723.28 684.669 1686.71 684.897C1650.14 685.125 1655.5 677.148 1655.5 662.866Z" fill="url(#paint12_linear_2_226)"/>
<path d="M1654.34 574.916C1654.34 562.977 1655.28 550.419 1656.96 538.299C1658.63 526.178 1661.05 514.495 1663.99 504.304C1666.93 494.113 1679.59 469.549 1686.33 469.511C1693.07 469.473 1705.66 494.041 1708.57 504.208C1711.49 514.374 1713.88 526.033 1715.54 538.136C1717.2 550.238 1718.13 562.784 1718.13 574.723C1718.13 586.663 1718.69 596.776 1718.9 605.253C1719.11 613.729 1718.97 620.569 1717.54 625.961C1716.12 631.353 1713.42 635.297 1708.53 637.984C1703.63 640.671 1696.54 642.099 1686.33 642.46C1676.12 642.82 1669.02 641.763 1664.1 639.23C1659.19 636.696 1656.47 632.686 1655.02 627.138C1653.57 621.59 1653.4 614.504 1653.59 605.821C1653.79 597.137 1654.34 586.856 1654.34 574.916Z" fill="url(#paint13_linear_2_226)"/>
<path d="M1663.96 504.304C1666.9 494.113 1679.56 469.549 1686.3 469.511C1693.04 469.473 1705.63 494.041 1708.55 504.208C1711.47 514.374 1661.02 514.495 1663.96 504.304Z" fill="url(#paint14_linear_2_226)"/>
<path d="M1627.18 649.428C1622.82 626.44 1650.37 612.532 1664.86 612.879C1679.35 613.227 1648.38 628.138 1645.13 649.428C1641.88 670.719 1641.45 684.902 1636.73 684.902C1632 684.902 1631.54 672.417 1627.18 649.428Z" fill="url(#paint15_linear_2_226)"/>
<path d="M1739.7 649.428C1743.51 626.44 1719.42 612.532 1706.75 612.879C1694.08 613.227 1721.16 628.138 1724 649.428C1726.84 670.719 1727.22 684.902 1731.35 684.902C1735.48 684.902 1735.89 672.417 1739.7 649.428Z" fill="url(#paint16_linear_2_226)"/>
<path d="M1673.95 568.721C1673.95 561.925 1679.46 556.415 1686.25 556.415C1693.05 556.415 1698.56 561.925 1698.56 568.721C1698.56 575.518 1693.05 581.027 1686.25 581.027C1679.46 581.027 1673.95 575.518 1673.95 568.721Z" fill="url(#paint17_linear_2_226)"/>
<path d="M1673.95 600.567C1673.95 593.77 1679.46 588.261 1686.25 588.261C1693.05 588.261 1698.56 593.77 1698.56 600.567C1698.56 607.363 1693.05 612.873 1686.25 612.873C1679.46 612.873 1673.95 607.363 1673.95 600.567Z" fill="url(#paint18_linear_2_226)"/>
<path d="M1678.2 568.721C1678.2 564.195 1681.81 560.525 1686.25 560.525C1690.7 560.525 1694.31 564.195 1694.31 568.721C1694.31 573.248 1690.7 576.917 1686.25 576.917C1681.81 576.917 1678.2 573.248 1678.2 568.721Z" fill="#6A96AD"/>
<path d="M1678.2 600.567C1678.2 596.04 1681.81 592.371 1686.25 592.371C1690.7 592.371 1694.31 596.04 1694.31 600.567C1694.31 605.093 1690.7 608.763 1686.25 608.763C1681.81 608.763 1678.2 605.093 1678.2 600.567Z" fill="#6F9BB2"/>
<path d="M1372.88 888.664C1372.88 888.664 1423.91 893.06 1465.88 896.773C1507.85 900.485 1540.77 903.508 1540.77 903.508L1535.27 911.585L1528.56 927.044C1528.56 927.044 1496.45 930.5 1463.33 930.5C1430.22 930.5 1396.1 927.044 1396.1 927.044L1385.1 904.161L1372.88 888.664Z" fill="url(#paint19_linear_2_226)"/>
<path d="M1470.9 882.891L1472.16 908.396L1427.76 903.986C1427.76 903.986 1439.77 868.851 1439.75 868.933C1439.09 871.15 1455.53 877.455 1461.43 879.648C1461.46 879.66 1470.9 882.891 1470.9 882.891Z" fill="url(#paint20_linear_2_226)"/>
<path d="M1456.83 895.983C1456.83 895.983 1446.8 895.56 1440.3 896.191C1433.8 896.821 1429.39 899.61 1429.39 899.61C1429.39 899.61 1439.71 869.242 1439.8 869.245C1447.87 869.496 1451.52 870.72 1459.56 873.473L1456.83 895.983Z" fill="url(#paint21_linear_2_226)"/>
<path d="M1372.88 888.664C1372.88 888.664 1418.48 899.519 1460.45 903.231C1502.42 906.944 1540.77 903.507 1540.77 903.507L1534.06 918.973L1527.35 934.432C1527.35 934.432 1495.24 937.887 1462.12 937.887C1429.01 937.887 1394.89 934.432 1394.89 934.432L1383.89 911.548L1372.88 888.664Z" fill="url(#paint22_linear_2_226)"/>
<defs>
<linearGradient id="paint0_linear_2_226" x1="1012.84" y1="1202.83" x2="1175.02" y2="-251.618" gradientUnits="userSpaceOnUse">
<stop stop-color="#B8DDE3"/>
<stop offset="0.154167" stop-color="#A7F1FF"/>
<stop offset="1" stop-color="#5386AC"/>
</linearGradient>
<linearGradient id="paint1_linear_2_226" x1="1042.05" y1="261.449" x2="1188.29" y2="1456.29" gradientUnits="userSpaceOnUse">
<stop offset="0.404167" stop-color="#457235"/>
<stop offset="1" stop-color="#3B5A31"/>
</linearGradient>
<linearGradient id="paint2_linear_2_226" x1="346.107" y1="189.174" x2="675.327" y2="1153.44" gradientUnits="userSpaceOnUse">
<stop stop-color="#83B971"/>
<stop offset="1" stop-color="#457235"/>
</linearGradient>
<linearGradient id="paint3_linear_2_226" x1="1248.74" y1="910.128" x2="1256.66" y2="909.072" gradientUnits="userSpaceOnUse">
<stop stop-color="#4D3324"/>
<stop offset="1" stop-color="#7D5137"/>
</linearGradient>
<linearGradient id="paint4_linear_2_226" x1="1216.72" y1="910.128" x2="1224.64" y2="909.072" gradientUnits="userSpaceOnUse">
<stop stop-color="#4D3324"/>
<stop offset="1" stop-color="#7D5137"/>
</linearGradient>
<linearGradient id="paint5_linear_2_226" x1="1280.75" y1="910.128" x2="1288.67" y2="909.072" gradientUnits="userSpaceOnUse">
<stop stop-color="#4D3324"/>
<stop offset="1" stop-color="#7D5137"/>
</linearGradient>
<linearGradient id="paint6_linear_2_226" x1="1312.77" y1="910.128" x2="1320.69" y2="909.072" gradientUnits="userSpaceOnUse">
<stop stop-color="#4D3324"/>
<stop offset="1" stop-color="#7D5137"/>
</linearGradient>
<linearGradient id="paint7_linear_2_226" x1="1262.12" y1="925.028" x2="1402.33" y2="910.551" gradientUnits="userSpaceOnUse">
<stop stop-color="#4D3324"/>
<stop offset="1" stop-color="#7D5137"/>
</linearGradient>
<linearGradient id="paint8_linear_2_226" x1="1266.32" y1="939.226" x2="1274.24" y2="938.17" gradientUnits="userSpaceOnUse">
<stop stop-color="#4D3324"/>
<stop offset="1" stop-color="#7D5137"/>
</linearGradient>
<linearGradient id="paint9_linear_2_226" x1="1234.3" y1="939.226" x2="1242.22" y2="938.17" gradientUnits="userSpaceOnUse">
<stop stop-color="#4D3324"/>
<stop offset="1" stop-color="#7D5137"/>
</linearGradient>
<linearGradient id="paint10_linear_2_226" x1="1298.34" y1="939.226" x2="1306.26" y2="938.17" gradientUnits="userSpaceOnUse">
<stop stop-color="#4D3324"/>
<stop offset="1" stop-color="#7D5137"/>
</linearGradient>
<linearGradient id="paint11_linear_2_226" x1="1330.35" y1="939.226" x2="1338.27" y2="938.17" gradientUnits="userSpaceOnUse">
<stop stop-color="#4D3324"/>
<stop offset="1" stop-color="#7D5137"/>
</linearGradient>
<linearGradient id="paint12_linear_2_226" x1="1684.89" y1="708.435" x2="1685.01" y2="659.484" gradientUnits="userSpaceOnUse">
<stop stop-color="#BAC2C6"/>
<stop offset="1" stop-color="#9D9D9D"/>
</linearGradient>
<linearGradient id="paint13_linear_2_226" x1="1653.53" y1="556.019" x2="1715.62" y2="576.888" gradientUnits="userSpaceOnUse">
<stop stop-color="#E4EDF1"/>
<stop offset="1" stop-color="#DBDBDB"/>
</linearGradient>
<linearGradient id="paint14_linear_2_226" x1="1663.84" y1="490.7" x2="1708.67" y2="490.7" gradientUnits="userSpaceOnUse">
<stop stop-color="#BAC2C6"/>
<stop offset="1" stop-color="#9D9D9D"/>
</linearGradient>
<linearGradient id="paint15_linear_2_226" x1="1621.42" y1="628.311" x2="1650.13" y2="643.265" gradientUnits="userSpaceOnUse">
<stop stop-color="#BAC2C6"/>
<stop offset="1" stop-color="#9D9D9D"/>
</linearGradient>
<linearGradient id="paint16_linear_2_226" x1="1741.66" y1="624.004" x2="1725.23" y2="645.419" gradientUnits="userSpaceOnUse">
<stop stop-color="#BAC2C6"/>
<stop offset="1" stop-color="#9D9D9D"/>
</linearGradient>
<linearGradient id="paint17_linear_2_226" x1="1673.95" y1="568.721" x2="1698.56" y2="568.721" gradientUnits="userSpaceOnUse">
<stop stop-color="#BAC2C6"/>
<stop offset="1" stop-color="#9D9D9D"/>
</linearGradient>
<linearGradient id="paint18_linear_2_226" x1="1673.95" y1="600.567" x2="1698.56" y2="600.567" gradientUnits="userSpaceOnUse">
<stop stop-color="#BAC2C6"/>
<stop offset="1" stop-color="#9D9D9D"/>
</linearGradient>
<linearGradient id="paint19_linear_2_226" x1="1463.2" y1="882.923" x2="1464.51" y2="942.028" gradientUnits="userSpaceOnUse">
<stop stop-color="#EDE5E1"/>
<stop offset="1" stop-color="#AFAAA8"/>
</linearGradient>
<linearGradient id="paint20_linear_2_226" x1="1435.92" y1="879.486" x2="1474.93" y2="878.541" gradientUnits="userSpaceOnUse">
<stop stop-color="#C2EBEB" stop-opacity="0.604742"/>
<stop offset="1" stop-color="#B6E9EE" stop-opacity="0.59911"/>
</linearGradient>
<linearGradient id="paint21_linear_2_226" x1="1439.34" y1="874.5" x2="1478.35" y2="873.555" gradientUnits="userSpaceOnUse">
<stop stop-color="#C2EBEB" stop-opacity="0.604742"/>
<stop offset="1" stop-color="#B6E9EE" stop-opacity="0.59911"/>
</linearGradient>
<linearGradient id="paint22_linear_2_226" x1="1461.99" y1="890.311" x2="1463.3" y2="949.416" gradientUnits="userSpaceOnUse">
<stop stop-color="white"/>
<stop offset="1" stop-color="#AFAAA8"/>
</linearGradient>
</defs>
</svg>
